<svg xmlns="http://www.w3.org/2000/svg"><symbol id="plus" viewBox="0 0 100 100"><path d="M92.5 42.5h-35v-35a7.5 7.5 0 0 0-15 0v35h-35a7.5 7.5 0 0 0 0 15h35v35a7.5 7.5 0 0 0 15 0v-35h35a7.5 7.5 0 0 0 0-15z"/></symbol><symbol id="insta" viewBox="0 0 100 100"><path d="M71.9 9A19.2 19.2 0 0 1 91 28.1v43.8A19.2 19.2 0 0 1 71.9 91H28.1A19.2 19.2 0 0 1 9 71.9V28.1A19.2 19.2 0 0 1 28.1 9h43.8m0-9H28.1A28.1 28.1 0 0 0 0 28.1v43.8A28.1 28.1 0 0 0 28.1 100h43.8A28.1 28.1 0 0 0 100 71.9V28.1A28.1 28.1 0 0 0 71.9 0z"/><path d="M50 33.5A16.5 16.5 0 1 1 33.5 50 16.5 16.5 0 0 1 50 33.5m0-9A25.5 25.5 0 1 0 75.5 50 25.5 25.5 0 0 0 50 24.5zm26.7 4.9a6.2 6.2 0 0 1-6.1-6.3 6 6 0 0 1 6.2-5.8 6 6 0 0 1 5.9 6.1 6.1 6.1 0 0 1-6 6z"/></symbol><symbol id="fbook" viewBox="0 0 100 100"><path d="M65 16.3h11.3V0H60.2C44 0 39.4 13 39.4 21.2v15.2H23.7v18.5h15.7V100h18.4V54.9h15.3l2.4-18.5H57.8v-13a6.9 6.9 0 0 1 7.2-7.1z"/></symbol><symbol id="twitter" viewBox="0 0 100 100"><path d="M50 31.1C47.2 8.3 75-.2 85.8 16.8c7.7-4.1 9.3-5.1 10.9-5.8-2 7.7-7.2 12.2-8.9 13.1l12.2-3.9c-4.1 8.7-9.9 11-9.9 11C92.3 68.8 53.9 111.2 0 83c18.8 1.2 29.1-8.1 29.1-8.1-11.2.3-19.6-10.1-19.3-13.8 5.7 1.7 13.1 2.5 16.3.3-19-6.3-22.8-18-23.1-23.3a41.5 41.5 0 0 0 9.4 2.9c-13.5-8.9-9.8-21.9-6.3-26.6C19.8 32.3 50 31.1 50 31.1z"/></symbol><symbol id="email" viewBox="0 0 256 256"><path d="M155.2 136.4l-8.5 5.7-18.7 12.5-18.7-12.5-8.5-5.7L6.5 73.6v128.3h243V73.6l-94.3 62.8z"/><path d="M249.5 54.1v4.4L151 124.2l-7.2 4.8-15.8 10.5-15.8-10.5-7.2-4.8L6.5 58.5v-4.4h243z"/></symbol><symbol id="right-indicator" viewBox="0 0 256 256"><path d="M84.7 246.5l-25.1-25.1 93.3-93.4-93.3-93.4L84.7 9.5 191 115.8a17.3 17.3 0 0 1 .8 24.4l-.8.7z"/></symbol><symbol id="left-indicator" viewBox="0 0 256 256"><path d="M171.3 9.5l25.1 25.1-93.3 93.4 93.3 93.4-25.1 25.1L65 140.2a17.3 17.3 0 0 1-.8-24.4l.8-.7z"/></symbol></svg>